<svg xmlns="http://www.w3.org/2000/svg" viewBox="0 0 512 512" width="512" height="512">
  <rect width="512" height="512" fill="#00180d" rx="96"/>
  <!-- Blueprint Grid -->
  <path d="M0 64h512M0 128h512M0 192h512M0 256h512M0 320h512M0 384h512M0 448h512" stroke="#e3ec00" stroke-opacity="0.08" stroke-width="2"/>
  <path d="M64 0v512M128 0v512M192 0v512M256 0v512M320 0v512M384 0v512M448 0v512" stroke="#e3ec00" stroke-opacity="0.08" stroke-width="2"/>
  
  <!-- Outer glowing card outline with cut corner -->
  <path d="M96 96 h280 l40 40 v280 h-320 Z" fill="#002517" stroke="#e3ec00" stroke-width="6"/>
  
  <!-- Badge Title Header -->
  <text x="136" y="160" font-family="Montserrat, sans-serif" font-weight="900" font-size="32" fill="#e3ec00" font-style="italic">GOA 2026</text>
  <text x="320" y="160" font-family="Montserrat, sans-serif" font-weight="900" font-size="32" fill="#fe00fe">Pass</text>

  <!-- Photo Box -->
  <rect x="136" y="184" width="144" height="144" fill="#0e3c29" stroke="#7df4ff" stroke-width="3"/>
  <circle cx="208" cy="240" r="36" fill="#00180d" stroke="#e3ec00" stroke-width="3"/>
  <path d="M172 310 c0-24 16-36 36-36 s36 12 36 36" fill="none" stroke="#e3ec00" stroke-width="3"/>

  <!-- QR Symbol Mock -->
  <rect x="300" y="184" width="76" height="76" fill="#e3ec00" rx="4"/>
  <rect x="312" y="196" width="20" height="20" fill="#00180d"/>
  <rect x="344" y="228" width="20" height="20" fill="#00180d"/>

  <!-- Details text -->
  <text x="136" y="360" font-family="monospace" font-weight="700" font-size="22" fill="#ffffff">BUILDER CLASS</text>
  <text x="136" y="390" font-family="monospace" font-weight="700" font-size="18" fill="#fe00fe">HX-7729-OMEGA</text>

  <!-- Corner accent -->
  <rect x="400" y="80" width="16" height="16" fill="#fe00fe"/>
  <rect x="80" y="400" width="16" height="16" fill="#e3ec00"/>
</svg>
